<svg width="128" height="128" viewBox="0 0 128 128" fill="none" xmlns="http://www.w3.org/2000/svg">
<circle cx="64" cy="64" r="64" fill="#004A9F"/>
<path d="M20.056 72.784V53.336C20.056 47.8587 22.7773 45.12 28.22 45.12H40.284C45.7267 45.12 48.448 47.8587 48.448 53.336V72.784C48.448 78.2613 45.7267 81 40.284 81H28.22C22.7773 81 20.056 78.2613 20.056 72.784ZM25.308 73.304C25.308 75.2453 26.296 76.216 28.272 76.216H40.232C42.208 76.216 43.196 75.2453 43.196 73.304V52.816C43.196 50.8747 42.208 49.904 40.232 49.904H28.272C26.296 49.904 25.308 50.8747 25.308 52.816V73.304ZM57.0877 81V45.12H80.7997V49.904H62.3397V61.448H79.2397V66.232H62.3397V81H57.0877ZM85.3871 78.92V76.216H101.403C103.379 76.216 104.367 75.2453 104.367 73.304V69.196C104.367 67.4973 103.622 66.5093 102.131 66.232L91.2631 63.996C87.3458 63.2333 85.3871 60.616 85.3871 56.144V53.336C85.3871 47.8587 88.1084 45.12 93.5511 45.12H105.927L108.579 47.2V49.904H93.6031C91.6271 49.904 90.6391 50.8747 90.6391 52.816V56.352C90.6391 58.0507 91.3844 59.0387 92.8751 59.316L103.795 61.448C107.678 62.28 109.619 64.9147 109.619 69.352V72.784C109.619 78.2613 106.898 81 101.455 81H88.0391L85.3871 78.92Z" fill="#C4C4CC"/>
</svg>
